<svg width="190" height="32" viewBox="0 0 190 32" fill="none" xmlns="http://www.w3.org/2000/svg">
<g clip-path="url(#clip0_3623_157)">
<path d="M7.06025 7.11381C7.6632 6.51086 8.33666 6.05379 9.08305 5.76447C10.5758 5.16152 12.1659 5.16152 13.6611 5.76447C14.4075 6.05379 15.0834 6.51086 15.6839 7.11381L17.5875 8.94453L21.2733 5.18583L19.4183 3.3308C18.3096 2.22215 17.0332 1.37851 15.6109 0.848498C12.8636 -0.28446 9.87806 -0.28446 7.05782 0.848498C5.68417 1.37851 4.40777 2.22215 3.29912 3.3308C2.19048 4.43944 1.34684 5.69153 0.816826 7.0895C0.286815 8.46315 -0.00250244 9.9073 -0.00250244 11.3782C-0.00250244 12.8491 0.262503 14.2446 0.816826 15.6183C1.34684 16.9919 2.19048 18.2683 3.29912 19.377C4.40777 20.4856 5.65986 21.3293 7.05782 21.9055C8.45579 22.4355 9.89994 22.7248 11.3465 22.7248C12.7931 22.7248 14.213 22.4598 15.6109 21.9055C17.0332 21.3268 18.3096 20.4832 19.4183 19.377L21.2733 17.522L17.5875 13.7633L15.6596 15.6183C15.1052 16.1969 14.4318 16.654 13.7073 16.9433C12.9609 17.2326 12.1659 17.4004 11.3708 17.4004C9.68356 17.4004 8.28803 16.8218 7.08214 15.6183C6.47919 15.0153 6.02211 14.3419 5.7328 13.5955C5.44348 12.8491 5.27572 12.0784 5.27572 11.3077C5.27572 10.537 5.41917 9.76629 5.7328 9.0199C6.02211 8.34645 6.45488 7.69487 7.05782 7.11624" fill="#0500C4"/>
<path d="M42.0896 3.37962C40.9809 2.27098 39.7045 1.42734 38.2823 0.897326C35.535 -0.235632 32.5494 -0.235632 29.7291 0.897326C28.3555 1.42734 27.0791 2.27098 25.9704 3.37962C24.8618 4.48827 24.0182 5.74036 23.4882 7.13832C22.9581 8.51198 22.6688 9.95613 22.6688 11.3784C22.6688 12.8007 22.9338 14.2692 23.4882 15.6671C24.0182 17.0408 24.8618 18.3172 25.9704 19.4258C27.0791 20.5345 28.2826 21.3295 29.6562 21.9081C31.0299 22.4868 32.4983 22.7761 34.0179 22.7761C35.5374 22.7761 37.0059 22.4868 38.3795 21.9081C39.7532 21.3295 41.0052 20.5102 42.0896 19.4258L43.9446 17.5708L40.1859 13.8121L38.3309 15.6671C37.3681 16.6299 36.2595 17.2085 34.9831 17.4249C34.6937 17.4735 34.3801 17.4978 34.0908 17.4978C33.393 17.4978 32.7171 17.3763 32.0437 17.1356L43.9446 5.23466L42.0896 3.37962ZM33.9474 5.3076C34.6451 5.3076 35.3453 5.42916 36.0188 5.66985C35.6322 6.05642 35.1508 6.51349 34.5965 7.04351L28.285 13.355C28.0443 12.7277 27.947 12.0543 27.947 11.3565C27.947 9.66925 28.5257 8.27371 29.7291 7.06782C30.6676 6.12936 31.8006 5.55072 33.0308 5.35622C33.3444 5.33191 33.658 5.3076 33.9474 5.3076Z" fill="#0500C4"/>
<path d="M64.761 3.37959C63.7252 2.34388 62.4975 1.52455 61.1238 0.945918C58.4495 -0.257547 55.0773 -0.281859 52.3057 0.945918C50.9321 1.52455 49.7043 2.34388 48.6686 3.37959C47.6329 4.4153 46.8378 5.59688 46.2349 6.97054C45.6563 8.31987 45.3669 9.81266 45.3669 11.3784V22.7736H50.667V11.3784C50.667 10.5347 50.8105 9.76403 51.0998 9.06627C51.4378 8.31987 51.8705 7.6683 52.4005 7.13829C52.9548 6.58397 53.604 6.12689 54.3285 5.83758C55.8213 5.186 57.5572 5.186 59.0743 5.83758C59.8207 6.12689 60.4479 6.55966 61.0023 7.13829C61.5566 7.6683 61.9893 8.31987 62.303 9.06627C62.6166 9.76403 62.7844 10.559 62.7844 11.3784V22.7736H68.0845V11.3784C68.0845 9.78834 67.7708 8.31744 67.1679 6.97054C66.6136 5.59688 65.7942 4.36911 64.7585 3.37959" fill="#0500C4"/>
<path d="M76.7835 7.11405C77.3864 6.5111 78.0599 6.05403 78.8063 5.76471C80.299 5.16176 81.8891 5.16176 83.3843 5.76471C84.1307 6.05403 84.8066 6.5111 85.4071 7.11405L87.3107 8.94478L90.9965 5.18608L89.1415 3.33104C88.0328 2.22239 86.7564 1.37875 85.3341 0.848742C82.5868 -0.284216 79.6013 -0.284216 76.781 0.848742C75.4074 1.37875 74.131 2.22239 73.0223 3.33104C71.9137 4.43969 71.07 5.71609 70.54 7.08974C70.01 8.46339 69.7207 9.90755 69.7207 11.3785C69.7207 12.8494 69.9857 14.2449 70.54 15.6185C71.07 16.9922 71.9137 18.2686 73.0223 19.3772C74.131 20.4859 75.3831 21.3295 76.781 21.9057C78.179 22.4357 79.6232 22.7251 81.0697 22.7251C82.5163 22.7251 83.9362 22.46 85.3341 21.9057C86.7564 21.3271 88.0328 20.4834 89.1415 19.3772L90.9965 17.5222L87.3107 13.7635L85.3828 15.6185C84.8284 16.1972 84.155 16.6542 83.4305 16.9436C82.6841 17.2329 81.9134 17.4006 81.0941 17.4006C79.4068 17.4006 77.9869 16.822 76.781 15.6185C76.1781 15.0156 75.7453 14.3421 75.4317 13.5957C75.1424 12.8494 74.9746 12.0786 74.9746 11.3079C74.9746 10.5372 75.1181 9.76654 75.4317 9.02015C75.721 8.34669 76.1538 7.69512 76.781 7.11648" fill="#0500C4"/>
<path d="M111.789 3.37959C110.753 2.34388 109.525 1.52455 108.151 0.945918C105.477 -0.257547 102.105 -0.281859 99.3333 0.945918C97.9596 1.52455 96.7318 2.34388 95.6718 3.37959C94.6604 4.39099 93.8411 5.59688 93.2381 6.97054C92.6595 8.31987 92.3702 9.81266 92.3702 11.3784C92.3702 12.9441 92.6595 14.415 93.2381 15.7862C93.8411 17.1599 94.6604 18.3876 95.6718 19.4234C96.7075 20.4591 97.9353 21.3027 99.3333 21.9057C100.707 22.4843 102.2 22.7736 103.741 22.7736C105.283 22.7736 106.8 22.4843 108.149 21.9057C109.523 21.3027 110.75 20.4834 111.786 19.4234C112.822 18.3876 113.641 17.1599 114.22 15.7862C114.823 14.4126 115.136 12.9198 115.136 11.3784C115.136 9.83697 114.823 8.31744 114.22 6.97054C113.665 5.59688 112.846 4.36911 111.786 3.37959M109.839 11.3784C109.839 12.1977 109.671 13.017 109.333 13.7634C109.044 14.5098 108.611 15.1614 108.032 15.7157C107.502 16.2457 106.851 16.6785 106.104 17.0164C104.611 17.6194 102.803 17.5951 101.358 17.0164C100.612 16.6785 99.9362 16.2457 99.3819 15.7157C98.8519 15.1371 98.3948 14.4879 98.0812 13.7391C97.7919 12.9927 97.6241 12.1977 97.6241 11.3541C97.6241 10.5104 97.7675 9.73972 98.0569 9.04195C98.3948 8.29556 98.8276 7.64399 99.3576 7.11398C99.9119 6.55966 100.585 6.12689 101.334 5.81326C102.081 5.47532 102.876 5.33188 103.695 5.33188C104.514 5.33188 105.334 5.49963 106.08 5.83758C106.826 6.12689 107.454 6.55966 108.008 7.13829C108.562 7.6683 108.995 8.31987 109.309 9.06627C109.671 9.76403 109.839 10.559 109.839 11.3784Z" fill="#0500C4"/>
<path d="M164.238 11.3539V0.513012H159.322V2.00579C157.493 0.753705 155.276 0.00488281 152.867 0.00488281C146.604 0.00488281 141.52 5.08861 141.52 11.3758C141.52 17.663 146.604 22.7224 152.867 22.7224C155.252 22.7224 157.493 21.976 159.324 20.7239V22.2167H164.24V11.3515L164.238 11.3539ZM152.891 17.8113C149.324 17.8113 146.434 14.9206 146.434 11.3539C146.434 7.78729 149.324 4.89654 152.891 4.89654C156.458 4.89654 159.348 7.78729 159.348 11.3539C159.324 14.9206 156.458 17.8113 152.891 17.8113Z" fill="#FFAC2C"/>
<path d="M184.959 0.513184V11.3541C184.959 14.9207 182.068 17.8115 178.502 17.8115C174.935 17.8115 172.044 14.9207 172.044 11.3541V0.513184H167.128V11.3541C167.128 15.2319 169.081 18.6551 172.044 20.7022C173.875 21.9543 176.092 22.7007 178.502 22.7007C180.911 22.7007 183.128 21.9543 184.959 20.7022C184.935 24.2445 182.068 27.0867 178.502 27.0867H176.309V32.0026H178.502C180.887 32.0026 183.128 31.2562 184.959 30.0041C187.923 27.957 189.875 24.5363 189.875 20.656V0.513184H184.959Z" fill="#00C7F9"/>
<path d="M128.197 0.00488281C122.294 0.00488281 117.38 4.50997 116.826 10.2915V31.9757H121.742V20.7239C123.573 21.976 125.79 22.7224 128.199 22.7224C134.462 22.7224 139.546 17.6387 139.546 11.3515C139.546 5.0643 134.46 0.00488281 128.197 0.00488281ZM128.197 17.8113C124.63 17.8113 121.74 14.9206 121.74 11.3539C121.74 7.78729 124.63 4.89654 128.197 4.89654C131.764 4.89654 134.654 7.78729 134.654 11.3539C134.63 14.9206 131.764 17.8113 128.197 17.8113Z" fill="#F04B67"/>
</g>
<defs>
<clipPath id="clip0_3623_157">
<rect width="189.873" height="32" fill="white"/>
</clipPath>
</defs>
</svg>
